HIERARCHY
ROOT Hips
{
	OFFSET -22.826694 38.078640 -33.586449
	CHANNELS 6 Xposition Yposition Zposition Xrotation Yrotation Zrotation
	JOINT Chest
	{
		OFFSET -9.624748 8.890190 -3.805649
		CHANNELS 3 Xrotation Yrotation Zrotation
		JOINT Chest2
		{
			OFFSET -12.027176 17.527416 2.683884
			CHANNELS 3 Xrotation Yrotation Zrotation
			JOINT Chest3
			{
				OFFSET -5.281109 13.947174 -0.637299
				CHANNELS 3 Xrotation Yrotation Zrotation
				JOINT Neck
				{
					OFFSET -4.928207 16.562874 0.005131
					CHANNELS 3 Xrotation Yrotation Zrotation
					JOINT Head
					{
						OFFSET 1.644936 10.185417 1.838261
						CHANNELS 3 Xrotation Yrotation Zrotation
						End Site
						{
							OFFSET 1.612370 10.201843 1.774918
						}
					}
				}
				JOINT LeftCollar
				{
					OFFSET 0.817715 14.075378 1.737637
					CHANNELS 3 Xrotation Yrotation Zrotation
					JOINT LeftUpArm
					{
						OFFSET 14.788128 0.128975 -9.475975
						CHANNELS 3 Xrotation Yrotation Zrotation
						JOINT LeftLowArm
						{
							OFFSET 33.503674 -3.248322 2.584648
							CHANNELS 3 Xrotation Yrotation Zrotation
							JOINT LeftHand
							{
								OFFSET 25.332533 13.915558 8.097317
								CHANNELS 3 Xrotation Yrotation Zrotation
								End Site
								{
									OFFSET 5.536581 3.041321 1.769711
								}
							}
						}
					}
				}
				JOINT RightCollar
				{
					OFFSET -6.990360 11.751625 3.852636
					CHANNELS 3 Xrotation Yrotation Zrotation
					JOINT RightUpArm
					{
						OFFSET -16.464176 5.940331 -1.462778
						CHANNELS 3 Xrotation Yrotation Zrotation
						JOINT RightLowArm
						{
							OFFSET -10.532181 29.814308 11.828537
							CHANNELS 3 Xrotation Yrotation Zrotation
							JOINT RightHand
							{
								OFFSET 16.791916 20.198784 14.525694
								CHANNELS 3 Xrotation Yrotation Zrotation
								End Site
								{
									OFFSET 3.670017 4.414673 3.174720
								}
							}
						}
					}
				}
			}
		}
	}
	JOINT LeftUpLeg
	{
		OFFSET 6.973442 7.129368 -0.981007
		CHANNELS 3 Xrotation Yrotation Zrotation
		JOINT LeftLowLeg
		{
			OFFSET 43.686615 -4.418064 17.774984
			CHANNELS 3 Xrotation Yrotation Zrotation
			JOINT LeftFoot
			{
				OFFSET 44.408165 -4.179310 -3.319107
				CHANNELS 3 Xrotation Yrotation Zrotation
				JOINT LeftToe
				{
					OFFSET 21.579231 -3.971626 8.838709
					CHANNELS 3 Xrotation Yrotation Zrotation
					End Site
					{
						OFFSET 12.409897 2.897320 19.928846
					}
				}
			}
		}
	}
	JOINT RightUpLeg
	{
		OFFSET -6.973305 -7.129499 0.981064
		CHANNELS 3 Xrotation Yrotation Zrotation
		JOINT RightLowLeg
		{
			OFFSET -2.863590 -6.832363 46.788139
			CHANNELS 3 Xrotation Yrotation Zrotation
			JOINT RightFoot
			{
				OFFSET 28.774321 -7.219742 -33.473785
				CHANNELS 3 Xrotation Yrotation Zrotation
				JOINT RightToe
				{
					OFFSET 20.398632 10.945648 4.862646
					CHANNELS 3 Xrotation Yrotation Zrotation
					End Site
					{
						OFFSET 11.787077 9.455328 18.199387
					}
				}
			}
		}
	}
}
MOTION
Frames: 17
Frame Time: 0.033333
3.234030 105.503998 -1.111710 25.662978 -10.238688 -45.729397 -19.710895 -18.727784 12.794815 7.685148 -4.762709 14.270338 0.958085 4.875567 0.301970 -2.796307 -22.584760 27.276453 -0.000000 -0.000001 -0.000000 -0.396240 7.744393 -7.944552 2.744817 -8.244498 -48.945767 18.639204 -11.507448 -30.729837 -0.000007 0.000001 -0.000000 20.292840 5.142107 60.799865 43.403786 23.839401 75.918529 19.346168 -25.943130 36.574317 0.000003 0.000004 -0.000003 10.124499 -6.093225 -26.889922 -7.939518 -17.064908 -8.342623 -6.399071 -33.689324 22.059597 0.000003 -0.000006 -0.000001 51.735422 47.877195 -12.503892 22.428622 -135.977933 23.585654 -17.004888 5.776254 -1.220402 0.000002 0.000001 -0.000005 
3.235975 105.502655 -1.117531 25.753817 -9.985210 -46.068769 -19.750259 -18.780442 12.767761 8.090931 -4.558436 14.306326 0.686357 4.558388 0.428172 -2.428154 -22.513852 27.466667 -0.000000 0.000001 -0.000000 -0.100716 7.628631 -7.562192 2.547847 -8.872330 -49.192873 18.778978 -11.117227 -31.111419 0.000001 -0.000001 -0.000003 20.397216 5.093948 60.505367 43.658016 23.945637 76.018776 19.253547 -26.015287 36.165551 0.000000 0.000002 -0.000004 10.186763 -5.902122 -26.726069 -8.079135 -17.465692 -8.246506 -6.039402 -33.616531 21.963739 0.000003 -0.000002 -0.000004 51.251677 48.047997 -12.159282 22.554676 -135.949970 23.600173 -16.541774 5.338625 -1.199601 0.000001 -0.000002 -0.000004 
3.252333 105.501694 -1.118290 25.901443 -10.069341 -46.306763 -20.019682 -19.057693 12.830548 8.822321 -4.215383 14.347302 0.173810 4.318689 0.423959 -2.105616 -22.501785 27.673022 -0.000000 -0.000001 -0.000000 0.297269 7.232694 -7.422269 2.504696 -9.034544 -49.472897 18.822850 -11.117852 -30.896771 -0.000001 0.000001 -0.000002 20.551254 4.947855 60.317954 43.891806 24.272553 75.811801 19.126089 -26.240690 36.101924 0.000001 0.000005 -0.000004 9.987193 -5.940370 -26.527900 -7.907933 -17.406549 -8.163880 -6.042676 -33.864221 22.053330 0.000005 -0.000000 -0.000000 50.466977 48.062798 -11.603730 23.198213 -135.706297 23.945959 -16.550274 5.079056 -1.054002 -0.000000 0.000002 -0.000003 
3.274071 105.501465 -1.113247 25.790033 -10.093976 -46.554662 -19.837123 -18.916504 12.930979 8.693215 -4.393930 14.525505 0.235842 4.490722 0.377932 -2.226163 -22.634371 27.854773 -0.000001 0.000001 -0.000000 1.156990 5.589782 -7.448272 2.661655 -8.729914 -49.730109 18.748910 -11.363813 -29.905321 -0.000001 0.000000 -0.000002 20.660813 4.552038 60.637730 43.938870 24.160594 75.547254 19.269627 -26.330910 36.385268 0.000004 0.000002 0.000001 9.615573 -6.289765 -26.271339 -7.548342 -16.597588 -8.245075 -5.893659 -34.439607 22.334097 0.000000 -0.000001 -0.000000 49.260567 48.006104 -10.818991 24.594908 -135.116523 24.413326 -15.941492 4.863467 -1.159811 0.000000 0.000003 -0.000002 
3.300758 105.514145 -1.112816 25.721290 -9.903078 -46.926217 -19.720281 -18.788607 12.881287 9.007763 -4.273870 14.586024 -0.065975 4.373626 0.534832 -1.813968 -22.732254 28.061998 -0.000000 0.000002 -0.000000 1.462136 4.857845 -7.211630 2.606317 -8.450265 -50.073572 18.536329 -11.533055 -29.990684 0.000001 -0.000001 -0.000001 20.542998 4.726452 60.634991 43.702760 23.827677 75.798509 19.435880 -26.053663 36.278208 0.000003 0.000002 -0.000001 9.643463 -6.182153 -26.033135 -7.449395 -16.335600 -8.286467 -5.798690 -34.682167 22.510760 0.000002 -0.000000 0.000001 48.748313 48.063894 -10.459607 24.918192 -134.750453 24.511490 -15.400260 4.672352 -1.202936 0.000002 0.000003 -0.000001 
3.329964 105.521057 -1.105747 25.944651 -10.233141 -47.089179 -19.596733 -18.603823 12.668011 8.829578 -4.444351 14.745661 0.160522 4.313775 0.601867 -1.401192 -22.756196 28.230186 -0.000001 0.000001 -0.000000 1.364111 4.827602 -6.942705 2.545028 -8.163898 -50.293159 18.202678 -11.917629 -30.089681 -0.000001 -0.000001 -0.000004 20.378201 4.624718 60.653255 43.437387 23.609427 76.255872 19.831756 -25.609376 36.491375 0.000000 0.000000 -0.000000 9.401183 -6.360606 -25.623016 -7.408044 -16.116024 -8.492490 -6.091458 -34.769631 22.708624 0.000002 -0.000000 -0.000000 47.049451 47.772344 -9.377047 26.421383 -133.954175 25.088583 -15.451363 4.641325 -1.083359 -0.000002 -0.000002 -0.000004 
3.361576 105.535568 -1.098324 26.017061 -10.693106 -47.136986 -19.622946 -18.609800 12.559739 8.476150 -4.619687 14.761316 0.486025 4.732904 0.650883 -0.736362 -22.878455 28.512005 -0.000000 -0.000001 -0.000000 1.653007 4.334148 -6.898899 2.655711 -8.032912 -50.285683 18.151226 -12.325861 -29.745624 -0.000003 0.000002 -0.000000 20.387527 5.043982 60.674401 43.434027 23.569038 76.214707 19.649881 -25.333788 35.513644 0.000002 0.000007 -0.000000 9.132957 -6.589487 -25.294417 -7.110695 -15.650007 -8.688736 -6.657050 -34.830516 22.907809 0.000003 -0.000003 -0.000002 45.807999 47.502743 -8.614036 27.560831 -133.320662 25.668305 -15.571363 4.477540 -0.964732 -0.000002 0.000001 -0.000002 
3.393988 105.546936 -1.093887 25.480331 -10.595786 -47.638705 -18.963255 -17.945634 12.590660 7.841951 -5.188784 15.119151 1.055884 4.433487 0.505382 -0.122386 -23.069946 28.620308 -0.000001 0.000002 -0.000000 1.615544 4.429612 -6.377661 2.554912 -7.388783 -50.510834 17.860851 -12.491321 -30.593729 -0.000002 -0.000002 -0.000003 20.207624 5.180957 60.556580 42.906272 23.259279 77.135423 19.647244 -25.104019 35.595476 -0.000000 0.000007 -0.000005 9.296480 -6.027975 -25.091699 -7.070989 -15.822333 -8.781094 -6.504489 -34.742409 22.840863 0.000001 -0.000000 0.000001 45.273468 47.509659 -8.155909 29.046783 -132.351185 26.275681 -15.922293 4.591851 -1.074958 -0.000002 -0.000002 -0.000003 
3.432787 105.562210 -1.091999 25.866545 -10.911981 -48.038155 -19.387048 -18.347036 12.501454 8.389909 -4.937646 15.176544 0.879963 4.455096 0.587614 0.615547 -23.198300 28.749878 -0.000001 0.000003 -0.000001 1.651715 4.479159 -6.217225 2.600759 -7.443265 -50.477219 17.888873 -12.471684 -30.718052 -0.000003 0.000000 -0.000001 20.306924 5.153358 60.878521 42.869583 23.220413 76.929923 19.259636 -25.043396 35.288183 0.000005 0.000004 -0.000003 8.990844 -6.162749 -24.408665 -6.949098 -15.787374 -8.911044 -6.407097 -34.686836 22.829567 0.000001 -0.000003 0.000001 43.964049 47.116653 -7.414642 30.587643 -131.111355 27.217923 -16.377940 4.696369 -1.003148 0.000004 -0.000001 -0.000003 
3.474777 105.580460 -1.096767 26.186983 -11.109496 -48.237542 -19.670344 -18.583377 12.446989 8.649268 -4.826875 15.079707 0.796663 4.193562 0.762411 1.689850 -23.147158 28.498385 -0.000000 -0.000001 -0.000000 1.358057 5.000950 -5.935227 2.558499 -6.651950 -50.631670 17.620240 -12.709307 -31.473293 0.000002 0.000000 0.000001 20.230407 5.098973 61.132952 42.392635 23.116680 77.203855 19.037223 -25.040334 35.510010 0.000006 0.000005 -0.000003 8.607225 -6.123760 -24.164902 -6.892393 -15.567084 -9.048943 -6.105868 -34.751398 22.770976 0.000003 -0.000000 -0.000002 42.568307 46.392947 -6.441928 32.572376 -129.641498 28.163780 -16.837072 4.825542 -1.122358 0.000002 0.000002 -0.000002 
3.522093 105.597717 -1.109787 26.400392 -11.583083 -48.397310 -19.458760 -18.403373 12.451207 8.801732 -4.680160 14.896555 0.774903 3.652383 1.070474 2.155871 -22.797312 27.875069 -0.000002 0.000001 -0.000001 0.524221 7.341080 -5.921524 2.699042 -6.835011 -50.679577 18.262790 -12.793413 -31.494166 -0.000003 -0.000001 -0.000001 20.367768 5.540210 60.591086 42.849929 23.759353 76.754305 18.377829 -25.695692 34.433845 0.000002 0.000005 -0.000003 8.145702 -6.255873 -23.812013 -6.699640 -15.240293 -9.189623 -6.256832 -34.428641 22.655611 0.000003 0.000002 -0.000003 41.971031 45.571575 -6.139289 35.394061 -127.215729 29.932867 -17.460378 4.578111 -1.260121 0.000002 0.000002 -0.000002 
3.575697 105.600098 -1.105659 26.343761 -11.731828 -48.441092 -19.292382 -18.218230 12.296456 8.879189 -4.526260 14.818326 0.821808 3.228825 1.154701 3.216814 -22.183551 27.270234 -0.000000 0.000002 0.000000 0.338353 8.098080 -5.774530 2.860050 -6.698495 -50.854228 18.385437 -13.158293 -30.994446 -0.000003 -0.000000 0.000001 20.510039 5.689542 60.363614 43.014032 24.056662 76.584527 17.815307 -25.850538 33.889811 0.000004 0.000001 -0.000000 7.936469 -6.493002 -23.645613 -6.617074 -14.821825 -9.503967 -6.286900 -34.244195 22.689976 0.000003 -0.000003 -0.000003 39.317963 43.550406 -4.891895 45.969994 -122.091749 36.680452 -15.436431 2.999227 -1.296025 -0.000000 0.000003 -0.000006 
3.625666 105.591568 -1.098259 25.820980 -12.037520 -48.186339 -18.817883 -17.646752 11.969070 8.442958 -4.652129 14.651427 1.233627 3.525911 1.316620 4.083542 -21.937077 26.909931 -0.000000 0.000002 -0.000000 0.168451 8.437678 -5.626966 2.978027 -6.216579 -50.817697 18.400716 -13.351506 -31.283417 -0.000003 -0.000001 -0.000003 20.459900 5.726968 60.238334 42.803836 23.965303 76.849723 17.776916 -25.727147 33.095081 0.000004 0.000001 -0.000003 7.700543 -6.657924 -23.775730 -6.189799 -13.786593 -10.081192 -6.576541 -34.904169 23.216254 0.000001 -0.000002 -0.000004 37.098924 41.896831 -3.747144 59.051596 -118.309805 45.697415 -13.101017 2.184548 -1.587915 0.000003 0.000002 -0.000003 
3.683498 105.543900 -1.095901 25.513065 -12.211822 -47.885435 -18.323900 -17.083756 11.671099 8.204445 -4.740597 14.462589 1.407349 3.762973 1.459653 4.860092 -21.742784 26.111765 -0.000001 -0.000001 -0.000000 0.254762 8.501355 -5.542522 3.060359 -6.027841 -50.927639 18.712903 -14.157833 -30.258554 -0.000004 0.000000 -0.000004 20.390944 5.969715 59.852401 42.640366 23.705900 77.227412 17.431527 -26.037649 32.366634 0.000004 0.000001 -0.000000 7.187909 -7.160983 -23.854869 -5.523303 -11.603878 -10.874261 -5.667869 -36.306311 23.688739 0.000002 -0.000001 -0.000002 36.339598 40.571733 -3.450223 78.165088 -115.196345 60.225425 -9.831199 3.765374 -2.711905 0.000002 0.000002 0.000002 
3.740263 105.437347 -1.085258 26.243226 -12.421209 -47.449894 -18.592817 -17.236351 11.220197 8.025623 -4.713179 14.070823 1.540975 4.551192 1.789894 5.405504 -21.913923 25.764421 -0.000002 -0.000001 0.000001 0.729266 7.600078 -4.809281 2.893661 -5.784570 -51.534467 19.167331 -14.948294 -29.251651 0.000003 0.000003 -0.000002 20.306948 5.343137 59.664223 42.181063 23.404729 77.555739 17.457438 -26.775873 33.075601 0.000001 0.000005 -0.000001 6.172165 -8.466877 -23.868632 -4.763891 -9.055758 -11.565607 -5.051715 -37.472771 24.213063 0.000003 -0.000001 -0.000002 36.424863 39.807428 -3.609367 96.618183 -114.264734 75.049866 -6.334726 7.464699 -4.696268 -0.000004 0.000003 -0.000003 
3.794378 105.297699 -1.070518 26.809667 -12.364656 -47.230147 -18.504948 -17.074001 10.997212 7.394766 -5.097702 14.031581 1.790268 5.582577 1.812227 5.636953 -22.382526 26.044336 -0.000000 -0.000003 -0.000001 1.239755 6.049916 -4.047746 2.833495 -4.745019 -52.178219 18.810688 -15.587499 -29.265919 -0.000002 -0.000000 -0.000001 19.932766 4.707637 59.479227 41.327228 22.610443 78.825478 17.711212 -26.858833 34.179168 -0.000000 0.000000 0.000001 5.501003 -9.392890 -23.812669 -4.091957 -7.274747 -12.428377 -5.602708 -37.716769 24.506121 0.000003 -0.000003 0.000001 37.672158 39.691619 -4.356380 110.484341 -115.112730 85.864200 -5.385905 11.801320 -6.309569 0.000001 0.000003 -0.000001 
3.854374 105.084686 -1.096657 27.515284 -12.428641 -46.881510 -18.053756 -16.606295 10.787842 6.791531 -5.203592 13.593007 1.858086 6.545480 2.247829 5.493997 -22.810067 26.320552 -0.000001 0.000004 0.000001 1.150719 5.696693 -3.410982 2.730202 -3.711039 -52.420619 18.461508 -16.312672 -30.144640 -0.000002 0.000001 -0.000000 19.556428 4.413573 59.473510 40.289544 21.811169 79.339040 17.807813 -26.822776 35.621325 0.000001 0.000003 -0.000004 4.266023 -10.927463 -23.830373 -3.682288 -5.733672 -12.715311 -5.884301 -37.947025 24.861697 0.000003 -0.000001 -0.000002 38.558450 39.238938 -4.784294 122.311722 -116.485816 95.156338 -5.026462 14.552956 -7.346421 0.000003 0.000003 -0.000003 
